<?xml version="1.0" encoding="UTF-8"?>
<svg width="700pt" height="700pt" version="1.1" viewBox="0 0 700 700" xmlns="http://www.w3.org/2000/svg">
 <path d="m592.66 307.54c-0.039062-13.777-0.027344-27.539-0.027344-27.539s0.027344-13.762 0-27.523c-0.015624-7.4219-37.059-18.242-71.301-26.656-3.1211-9.9531-7.1953-19.461-11.914-28.547 18.258-30.211 36.875-64.133 31.613-69.398-9.7578-9.7148-19.488-19.445-19.488-19.445s-9.7031-9.7305-19.473-19.461c-5.2227-5.25-39.172 13.344-69.371 31.625-9.0703-4.7461-18.605-8.793-28.52-11.93-8.457-34.242-19.25-71.316-26.672-71.359-13.773 0.074218-27.523 0.074218-27.523 0.074218s-13.734-0.027344-27.523 0.015625c-7.4062-0.015625-18.242 37.043-26.672 71.273-9.9102 3.1641-19.418 7.2109-28.52 11.941-30.18-18.27-64.145-36.902-69.422-31.652-9.7031 9.7578-19.402 19.488-19.402 19.488s-9.7461 9.7148-19.488 19.457c-5.2344 5.25 13.355 39.199 31.641 69.383-4.7461 9.0859-8.793 18.594-11.93 28.531-34.242 8.4414-71.328 19.234-71.328 26.656 0 13.789-0.015625 27.539-0.015625 27.539s0.015625 13.746 0.015625 27.539c-0.015625 7.4219 37.059 18.242 71.328 26.672 3.1211 9.9258 7.168 19.418 11.914 28.531-18.27 30.172-36.875 64.121-31.625 69.371 9.7305 9.7422 19.461 19.473 19.461 19.473s9.7148 9.7148 19.488 19.461c5.2344 5.25 39.188-13.355 69.371-31.625 9.1016 4.7617 18.621 8.7773 28.531 11.93 8.4297 34.23 19.25 71.316 26.656 71.328 13.777-0.027344 27.523-0.027344 27.523-0.027344s13.777 0.015626 27.551-0.015624c7.4219 0.015624 18.242-37.031 26.672-71.273 9.9258-3.1641 19.434-7.2109 28.547-11.93 30.172 18.242 64.105 36.836 69.355 31.598 9.7148-9.7422 19.461-19.488 19.461-19.488s9.7422-9.6875 19.488-19.445c5.25-5.2656-13.355-39.172-31.625-69.371 4.7461-9.1016 8.793-18.605 11.941-28.559 34.211-8.4141 71.27-19.223 71.281-26.641zm-168.66 15.219c-23.605 40.867-75.852 54.879-116.75 31.277-40.852-23.605-54.867-75.867-31.246-116.73 23.59-40.895 75.852-54.895 116.7-31.305 40.895 23.586 54.895 75.875 31.289 116.76z"/>
</svg>
